<svg viewBox="0 0 20 20" fill="none" xmlns="http://www.w3.org/2000/svg">
  <path fill-rule="evenodd" clip-rule="evenodd" d="M3.333 2.292a1.042 1.042 0 0 0-1.041 1.041v7.5a1.042 1.042 0 0 0 1.041 1.042h.834a.625.625 0 1 1 0 1.25h-.834a2.292 2.292 0 0 1-2.291-2.292v-7.5a2.292 2.292 0 0 1 2.291-2.291h7.5a2.291 2.291 0 0 1 2.292 2.291v.834a.625.625 0 0 1-1.25 0v-.834a1.042 1.042 0 0 0-1.042-1.041h-7.5Zm5.834 5.833c-.576 0-1.042.466-1.042 1.042v7.5c0 .575.466 1.041 1.042 1.041h7.5a1.04 1.04 0 0 0 1.041-1.041v-7.5c0-.576-.466-1.042-1.041-1.042h-7.5ZM6.875 9.167a2.292 2.292 0 0 1 2.292-2.292h7.5a2.292 2.292 0 0 1 2.291 2.292v7.5a2.292 2.292 0 0 1-2.291 2.291h-7.5a2.292 2.292 0 0 1-2.292-2.291v-7.5Z" fill="currentColor" fill-opacity=".5" style="fill-opacity:.5"/>
</svg>
