<svg viewBox="0 0 22 22" fill="none" xmlns="http://www.w3.org/2000/svg">
  <path fill-rule="evenodd" clip-rule="evenodd" d="M1.78 10.25h4.502a16.05 16.05 0 0 1 3.014-8.343A9.255 9.255 0 0 0 1.78 10.25ZM11 2.149a14.55 14.55 0 0 0-3.214 8.101h6.428A14.55 14.55 0 0 0 11 2.149Zm3.214 9.601A14.55 14.55 0 0 1 11 19.851a14.55 14.55 0 0 1-3.214-8.101h6.428Zm-7.932 0H1.78a9.255 9.255 0 0 0 7.516 8.343 16.05 16.05 0 0 1-3.014-8.343Zm6.422 8.343a16.051 16.051 0 0 0 3.014-8.343h4.502a9.255 9.255 0 0 1-7.516 8.343Zm7.516-9.843h-4.502a16.05 16.05 0 0 0-3.014-8.343 9.255 9.255 0 0 1 7.516 8.343ZM.25 11C.25 5.063 5.063.25 11 .25S21.75 5.063 21.75 11 16.937 21.75 11 21.75.25 16.937.25 11Z" fill="currentColor" style="fill-opacity:1"/>
</svg>
