<svg viewBox="0 0 20 20" fill="none" xmlns="http://www.w3.org/2000/svg">
  <path fill-rule="evenodd" clip-rule="evenodd" d="M1.1 2.237a.625.625 0 0 1 .567-.362h16.666a.625.625 0 0 1 .478 1.029l-6.52 7.708V17.5a.625.625 0 0 1-.904.559l-3.333-1.667a.625.625 0 0 1-.346-.559v-5.22L1.19 2.902a.625.625 0 0 1-.09-.666Zm1.914.888L8.81 9.98a.625.625 0 0 1 .147.403v5.064l2.084 1.042v-6.106c0-.147.052-.29.147-.403l5.797-6.855H3.014Z" fill="currentColor" style="fill:color(display-p3 0 .8314 .749);fill-opacity:1"/>
</svg>
