<svg viewBox="0 0 22 22" fill="none" xmlns="http://www.w3.org/2000/svg">
  <mask id="a" fill="#fff">
    <path fill-rule="evenodd" clip-rule="evenodd" d="M7.945.25h1.11c1.367 0 2.47 0 3.337.117.9.12 1.658.38 2.26.981.602.602.86 1.36.982 2.26.116.867.116 1.97.116 3.337v8.305h.821c1.204 0 2.179.975 2.179 2.179v.071a.75.75 0 1 0 1.5 0v-3.96l-1.462-.487a2.25 2.25 0 0 1-1.538-2.134V8.5a2.25 2.25 0 0 1 2.25-2.25h.742a2.25 2.25 0 0 0-.74-1.483 6.02 6.02 0 0 0-.237-.195l-1.233-.986a.75.75 0 1 1 .936-1.172l1.25 1c.122.098.206.165.285.236a3.75 3.75 0 0 1 1.241 2.582c.006.105.006.213.006.37V17.5a2.25 2.25 0 0 1-4.5 0v-.071a.68.68 0 0 0-.679-.679h-.821v3.5H16a.75.75 0 1 1 0 1.5H1a.75.75 0 1 1 0-1.5h.25V6.945c0-1.367 0-2.47.117-3.337.12-.9.38-1.658.981-2.26.602-.602 1.36-.86 2.26-.981C5.475.25 6.578.25 7.945.25Zm-5.195 20h11.5V7c0-1.435-.002-2.437-.103-3.192-.099-.734-.28-1.122-.556-1.399-.277-.277-.665-.457-1.4-.556-.755-.101-1.756-.103-3.191-.103H8c-1.435 0-2.437.002-3.192.103-.734.099-1.122.28-1.399.556-.277.277-.457.665-.556 1.4C2.752 4.562 2.75 5.564 2.75 7v13.25Zm17.5-8.29V7.75h-.75a.75.75 0 0 0-.75.75v2.419c0 .323.207.61.513.711l.987.33ZM6.955 4.25h3.09c.433 0 .83 0 1.152.043.356.048.731.16 1.04.47.309.31.422.684.47 1.04.043.323.043.72.043 1.152v.09c0 .433 0 .83-.043 1.152-.048.356-.16.731-.47 1.04-.31.309-.684.422-1.04.47-.323.043-.72.043-1.152.043h-3.09c-.433 0-.83 0-1.152-.043-.356-.048-.731-.16-1.04-.47-.309-.31-.422-.684-.47-1.04-.043-.323-.043-.72-.043-1.152v-.09c0-.433 0-.83.043-1.152.048-.356.16-.731.47-1.04.31-.309.684-.422 1.04-.47.323-.043.72-.043 1.152-.043ZM5.826 5.822l-.003.001-.001.003-.005.01a.7.7 0 0 0-.037.167c-.028.21-.03.504-.03.997s.002.787.03.997a.7.7 0 0 0 .042.177l.001.003.003.001.01.005c.022.009.07.024.167.037.21.028.504.03.997.03h3c.493 0 .787-.002.997-.03a.7.7 0 0 0 .177-.042l.003-.001.001-.003.005-.01a.703.703 0 0 0 .037-.167c.028-.21.03-.504.03-.997s-.002-.787-.03-.997a.7.7 0 0 0-.042-.177l-.001-.003-.003-.001-.01-.005a.7.7 0 0 0-.167-.037c-.21-.028-.504-.03-.997-.03H7c-.493 0-.787.002-.997.03a.7.7 0 0 0-.177.042ZM5.25 16a.75.75 0 0 1 .75-.75h5a.75.75 0 1 1 0 1.5H6a.75.75 0 0 1-.75-.75Z"/>
  </mask>
  <path clip-rule="evenodd" d="M7.945.25h1.11c1.367 0 2.47 0 3.337.117.9.12 1.658.38 2.26.981.602.602.86 1.36.982 2.26.116.867.116 1.97.116 3.337v8.305h.821c1.204 0 2.179.975 2.179 2.179v.071a.75.75 0 1 0 1.5 0v-3.96l-1.462-.487a2.25 2.25 0 0 1-1.538-2.134V8.5a2.25 2.25 0 0 1 2.25-2.25h.742a2.25 2.25 0 0 0-.74-1.483 6.02 6.02 0 0 0-.237-.195l-1.233-.986a.75.75 0 1 1 .936-1.172l1.25 1c.122.098.206.165.285.236a3.75 3.75 0 0 1 1.241 2.582c.006.105.006.213.006.37V17.5a2.25 2.25 0 0 1-4.5 0v-.071a.68.68 0 0 0-.679-.679h-.821v3.5H16a.75.75 0 1 1 0 1.5H1a.75.75 0 1 1 0-1.5h.25V6.945c0-1.367 0-2.47.117-3.337.12-.9.38-1.658.981-2.26.602-.602 1.36-.86 2.26-.981C5.475.25 6.578.25 7.945.25Zm-5.195 20h11.5V7c0-1.435-.002-2.437-.103-3.192-.099-.734-.28-1.122-.556-1.399-.277-.277-.665-.457-1.4-.556-.755-.101-1.756-.103-3.191-.103H8c-1.435 0-2.437.002-3.192.103-.734.099-1.122.28-1.399.556-.277.277-.457.665-.556 1.4C2.752 4.562 2.75 5.564 2.75 7v13.25Zm17.5-8.29V7.75h-.75a.75.75 0 0 0-.75.75v2.419c0 .323.207.61.513.711l.987.33ZM6.955 4.25h3.09c.433 0 .83 0 1.152.043.356.048.731.16 1.04.47.309.31.422.684.47 1.04.043.323.043.72.043 1.152v.09c0 .433 0 .83-.043 1.152-.048.356-.16.731-.47 1.04-.31.309-.684.422-1.04.47-.323.043-.72.043-1.152.043h-3.09c-.433 0-.83 0-1.152-.043-.356-.048-.731-.16-1.04-.47-.309-.31-.422-.684-.47-1.04-.043-.323-.043-.72-.043-1.152v-.09c0-.433 0-.83.043-1.152.048-.356.16-.731.47-1.04.31-.309.684-.422 1.04-.47.323-.043.72-.043 1.152-.043ZM5.826 5.822l-.003.001-.001.003-.005.01a.7.7 0 0 0-.037.167c-.028.21-.03.504-.03.997s.002.787.03.997a.7.7 0 0 0 .042.177l.001.003.003.001.01.005c.022.009.07.024.167.037.21.028.504.03.997.03h3c.493 0 .787-.002.997-.03a.7.7 0 0 0 .177-.042l.003-.001.001-.003.005-.01a.703.703 0 0 0 .037-.167c.028-.21.03-.504.03-.997s-.002-.787-.03-.997a.7.7 0 0 0-.042-.177l-.001-.003-.003-.001-.01-.005a.7.7 0 0 0-.167-.037c-.21-.028-.504-.03-.997-.03H7c-.493 0-.787.002-.997.03a.7.7 0 0 0-.177.042ZM5.25 16a.75.75 0 0 1 .75-.75h5a.75.75 0 1 1 0 1.5H6a.75.75 0 0 1-.75-.75Z" stroke="currentColor" style="stroke-opacity:1" stroke-width="2" mask="url(#a)"/>
</svg>
