<svg viewBox="0 0 20 20" fill="none" xmlns="http://www.w3.org/2000/svg">
  <g clip-path="url(#a)">
    <path fill-rule="evenodd" clip-rule="evenodd" d="M10 1.458A1.042 1.042 0 0 0 8.958 2.5v.144a2 2 0 0 1-1.212 1.83.625.625 0 0 1-.186.048 2 2 0 0 1-2.08-.45l-.005-.005-.05-.05A1.043 1.043 0 1 0 3.95 5.49l.055.055a2 2 0 0 1 .408 2.188 2 2 0 0 1-1.823 1.29l-.015.001H2.5a1.042 1.042 0 0 0 0 2.083h.144a2 2 0 0 1 1.83 1.21 2 2 0 0 1-.402 2.202l-.005.005-.05.05A1.042 1.042 0 1 0 5.49 16.05l.055-.055a2 2 0 0 1 2.188-.408 2 2 0 0 1 1.29 1.823v.09a1.041 1.041 0 0 0 2.084 0v-.144a2 2 0 0 1 1.21-1.83 2 2 0 0 1 2.202.402l.005.005.05.05a1.042 1.042 0 1 0 1.475-1.474l-.055-.055a2 2 0 0 1-.401-2.204 2 2 0 0 1 1.828-1.208h.078a1.042 1.042 0 1 0 0-2.084h-.144a2 2 0 0 1-1.83-1.212.624.624 0 0 1-.048-.186 2 2 0 0 1 .45-2.08l.005-.005.05-.05a1.044 1.044 0 0 0-1.136-1.701c-.127.052-.242.13-.338.226l-.055.055a2 2 0 0 1-2.203.401 2 2 0 0 1-1.21-1.829V2.5A1.042 1.042 0 0 0 10 1.458ZM8.38.88a2.292 2.292 0 0 1 3.912 1.62v.074a.75.75 0 0 0 .454.685l.006.002a.75.75 0 0 0 .825-.147l.047-.047a2.294 2.294 0 1 1 3.243 3.242l-.047.047a.75.75 0 0 0-.148.825c.022.05.038.104.046.159a.75.75 0 0 0 .642.368h.14a2.292 2.292 0 0 1 0 4.584h-.074a.75.75 0 0 0-.685.454l-.003.006a.75.75 0 0 0 .148.825l.047.047a2.29 2.29 0 0 1 0 3.243 2.291 2.291 0 0 1-3.242 0l-.047-.047a.75.75 0 0 0-.825-.148l-.006.002a.75.75 0 0 0-.455.686v.14a2.291 2.291 0 0 1-4.583 0v-.067a.75.75 0 0 0-.527-.695.75.75 0 0 0-.826.148l-.047.047a2.293 2.293 0 1 1-3.242-3.242l.047-.047a.75.75 0 0 0 .148-.825l-.003-.006a.75.75 0 0 0-.685-.455H2.5a2.292 2.292 0 1 1 0-4.583h.067a.75.75 0 0 0 .694-.527.75.75 0 0 0-.147-.826l-.047-.046a2.293 2.293 0 1 1 3.242-3.243l.047.047a.75.75 0 0 0 .825.148.625.625 0 0 1 .158-.046.75.75 0 0 0 .37-.642V2.5c0-.608.24-1.19.67-1.62ZM10 8.125a1.875 1.875 0 1 0 0 3.75 1.875 1.875 0 0 0 0-3.75ZM6.875 10a3.125 3.125 0 1 1 6.25 0 3.125 3.125 0 0 1-6.25 0Z" fill="#fff" fill-opacity=".5" style="fill:#fff;fill-opacity:.5"/>
  </g>
  <defs>
    <clipPath id="a">
      <path fill="#fff" style="fill:#fff;fill-opacity:1" d="M0 0h20v20H0z"/>
    </clipPath>
  </defs>
</svg>
