<svg viewBox="0 0 40 40" fill="none" xmlns="http://www.w3.org/2000/svg">
  <path fill-rule="evenodd" clip-rule="evenodd" d="M19.283.72A19.285 19.285 0 0 0 0 20a19.278 19.278 0 0 0 19.283 19.28V28.901a8.903 8.903 0 0 0 6.26-15.195 8.903 8.903 0 0 0-6.26-2.607V.719Zm-.035 25.318v2.785a8.824 8.824 0 0 1 0-17.646v2.785a6.04 6.04 0 0 1 4.27 10.307 6.04 6.04 0 0 1-4.27 1.769ZM40 19.918a2.082 2.082 0 1 0-4.164.001 2.082 2.082 0 0 0 4.164 0Zm-6.3-1.092a1.093 1.093 0 1 1 .001 2.186 1.093 1.093 0 0 1 0-2.186Zm-2.133 1.093a.606.606 0 1 0-1.211 0 .606.606 0 0 0 1.211 0ZM23.524 37.65a2.083 2.083 0 1 0 3.913-1.425 2.083 2.083 0 0 0-3.913 1.425Zm.994-3.35a1.093 1.093 0 1 1-.748-2.056 1.093 1.093 0 0 1 .748 2.055Zm-1.771-3.1a.606.606 0 1 0 1.138-.414.606.606 0 0 0-1.139.415Zm13.54.683a2.083 2.083 0 1 1-3.412-2.389 2.083 2.083 0 0 1 3.412 2.39ZM30.5 29.168a1.094 1.094 0 1 0 1.254-1.792 1.094 1.094 0 0 0-1.254 1.792Zm-1.121-2.12a.606.606 0 1 1-.993-.694.606.606 0 0 1 .993.695Zm-5.892-24.74a2.082 2.082 0 1 1 3.914 1.425 2.082 2.082 0 0 1-3.913-1.425Zm.995 3.35a1.093 1.093 0 1 0-.748 2.055 1.093 1.093 0 0 0 .748-2.055ZM22.71 8.756a.606.606 0 1 1 1.139.414.606.606 0 0 1-1.139-.414Zm13.507-.722a2.083 2.083 0 1 0-3.412 2.39 2.083 2.083 0 0 0 3.412-2.39ZM30.43 10.75a1.093 1.093 0 1 1 1.254 1.792 1.093 1.093 0 0 1-1.254-1.792Zm-1.121 2.12a.606.606 0 1 0-.993.695.606.606 0 0 0 .993-.695Z" fill="#00D4BF" style="fill:color(display-p3 0 .8314 .749);fill-opacity:1"/>
</svg>
