<svg viewBox="0 0 18 18" fill="none" xmlns="http://www.w3.org/2000/svg">
  <path fill-rule="evenodd" clip-rule="evenodd" d="M8.952.622h.096c1.825 0 3.26 0 4.379.144 1.147.148 2.057.458 2.772 1.144.715.687 1.038 1.56 1.192 2.662.15 1.075.15 2.451.15 4.204v.091c0 1.753 0 3.13-.15 4.204-.154 1.102-.477 1.975-1.192 2.662-.715.686-1.625.996-2.772 1.144-1.12.145-2.554.145-4.38.145h-.095c-1.825 0-3.26 0-4.379-.145-1.147-.148-2.057-.457-2.772-1.144-.715-.687-1.038-1.56-1.192-2.662-.15-1.074-.15-2.451-.15-4.204v-.091c0-1.753 0-3.13.15-4.204.154-1.101.477-1.975 1.192-2.662.715-.686 1.625-.996 2.772-1.144C5.693.622 7.127.622 8.953.622ZM4.74 1.955c-1.009.13-1.611.378-2.055.804-.445.426-.702 1.005-.837 1.973-.138.986-.14 2.281-.14 4.09 0 1.808.002 3.104.14 4.09.135.968.392 1.546.837 1.972.444.427 1.046.674 2.055.804 1.026.132 2.376.134 4.26.134s3.233-.002 4.26-.134c1.009-.13 1.611-.377 2.055-.804.444-.426.702-1.004.837-1.973.138-.985.14-2.281.14-4.09 0-1.808-.002-3.103-.14-4.089-.135-.968-.393-1.547-.837-1.973-.444-.426-1.046-.673-2.055-.804-1.027-.132-2.376-.133-4.26-.133s-3.234.001-4.26.133Z" fill="#fff" fill-opacity=".5" style="fill:#fff;fill-opacity:.5"/>
  <path fill-rule="evenodd" clip-rule="evenodd" d="M5.227 5.822c.26-.009.5.138.6.369l2.083 4.8a.592.592 0 0 1-.336.785.635.635 0 0 1-.818-.323l-.36-.831H4.45l-.274.79a.631.631 0 0 1-.79.379.595.595 0 0 1-.396-.759l1.667-4.8c.082-.237.31-.4.57-.41Zm-.36 3.6h1.008l-.56-1.29-.448 1.29Zm5.099-3.6h1.117c1.036 0 1.875.806 1.875 1.8s-.84 1.8-1.875 1.8h-1.041v1.8c0 .331-.28.6-.625.6a.613.613 0 0 1-.625-.6V6.95a1.367 1.367 0 0 1 .05-.437c.104-.305.352-.543.67-.642.163-.051.343-.05.454-.05Zm.076 2.4h1.041a.613.613 0 0 0 .625-.6c0-.332-.28-.6-.625-.6h-1.041v1.2Zm4.374-2.4c.346 0 .625.268.625.6v4.8c0 .331-.28.6-.625.6a.613.613 0 0 1-.625-.6v-4.8c0-.332.28-.6.625-.6Z" fill="#fff" fill-opacity=".5" style="fill:#fff;fill-opacity:.5"/>
</svg>
