<svg viewBox="0 0 18 18" fill="none" xmlns="http://www.w3.org/2000/svg">
  <path fill-rule="evenodd" clip-rule="evenodd" d="M2.634.629C3.567.257 4.813.042 6.157.042c1.344 0 2.59.215 3.523.586.465.185.883.42 1.196.714.303.286.546.667.561 1.13l.002.047v3.669a.658.658 0 0 1 0 .086v2.41a4.836 4.836 0 0 1 5.108 1.093 4.775 4.775 0 0 1 0 6.78 4.834 4.834 0 0 1-7.479-.833c-.834.244-1.838.383-2.911.383-1.345 0-2.59-.216-3.523-.587-.465-.185-.883-.42-1.196-.714-.313-.295-.563-.692-.563-1.176V2.517c0-.483.25-.88.564-1.175.312-.293.73-.529 1.195-.713Zm-.509 3.546v2.047c0 .028.012.118.17.266.159.15.423.313.8.463.753.3 1.835.498 3.063.498 1.227 0 2.31-.199 3.062-.498.378-.15.642-.314.8-.463.137-.128.164-.213.169-.251V4.175a4.73 4.73 0 0 1-.508.234c-.933.37-2.18.586-3.524.586-1.345 0-2.591-.215-3.524-.586a5.01 5.01 0 0 1-.508-.234Zm8.063-1.643c-.004.037-.03.123-.168.252-.16.15-.423.313-.8.463-.753.3-1.836.498-3.063.498-1.228 0-2.31-.198-3.062-.498-.378-.15-.642-.313-.8-.463-.158-.147-.17-.237-.17-.265 0-.028.013-.118.17-.266.16-.15.423-.313.801-.463.753-.3 1.834-.498 3.06-.498 1.227 0 2.31.199 3.062.498.378.15.642.313.801.463.158.148.169.238.169.265v.014Zm0 5.347c-.16.086-.33.163-.506.234-.933.37-2.18.586-3.524.586-1.345 0-2.591-.215-3.524-.586a5.009 5.009 0 0 1-.509-.235v2.048c0 .027.012.117.17.266.159.15.423.313.8.463.753.3 1.835.498 3.062.498 1.107 0 2.096-.163 2.832-.415a4.8 4.8 0 0 1 1.2-1.357V7.88Zm.933 2.369a3.526 3.526 0 0 0-1.224 4.39.626.626 0 0 1 .056.116c.167.33.389.64.666.916a3.584 3.584 0 0 0 5.046 0 3.525 3.525 0 0 0 0-5.006 3.587 3.587 0 0 0-4.543-.416Zm-2.583 4.326a4.793 4.793 0 0 1-.11-2.392c-.69.143-1.462.221-2.271.221-1.345 0-2.59-.216-3.523-.587a5.014 5.014 0 0 1-.509-.234v2.047c0 .028.012.118.17.266.159.15.422.313.8.464.753.299 1.835.498 3.062.498a9.54 9.54 0 0 0 2.38-.283Z" fill="#fff" fill-opacity=".5" style="fill:#fff;fill-opacity:.5"/>
</svg>
