<svg viewBox="0 0 16 16" fill="none" xmlns="http://www.w3.org/2000/svg">
  <g clip-path="url(#a)">
    <path fill-rule="evenodd" clip-rule="evenodd" d="M10.762.766a1.833 1.833 0 0 1 2.405 1.742V3.5h.166c1.013 0 1.834.821 1.834 1.834v8a1.834 1.834 0 0 1-1.834 1.833H2.667a1.833 1.833 0 0 1-1.834-1.833v-8c0-.905.656-1.657 1.518-1.807v-.002l8.41-2.76ZM5.635 3.5h6.532v-.992a.833.833 0 0 0-1.094-.792L5.635 3.5Zm-2.968 1a.833.833 0 0 0-.834.834v8c0 .46.373.833.834.833h10.666c.46 0 .834-.373.834-.833v-8a.833.833 0 0 0-.834-.834H2.667ZM11 9.334a1 1 0 1 1 2 0 1 1 0 0 1-2 0Z" fill="currentColor" style="fill:currentColor;fill-opacity:1"/>
  </g>
  <defs>
    <clipPath id="a">
      <path fill="currentColor" style="fill:currentColor;fill-opacity:1" d="M0 0h16v16H0z"/>
    </clipPath>
  </defs>
</svg>
